<?xml version="1.0" encoding="UTF-8"?>
<!DOCTYPE svg PUBLIC "-//W3C//DTD SVG 1.1//EN" "http://www.w3.org/Graphics/SVG/1.1/DTD/svg11.dtd">
<svg xmlns="http://www.w3.org/2000/svg" version="1.1" width="512px" height="512px" style="shape-rendering:geometricPrecision; text-rendering:geometricPrecision; image-rendering:optimizeQuality; fill-rule:evenodd; clip-rule:evenodd" xmlns:xlink="http://www.w3.org/1999/xlink">
<g><path style="opacity:0.969" fill="#020201" d="M 50.5,-0.5 C 97.1667,-0.5 143.833,-0.5 190.5,-0.5C 191.458,0.961599 192.624,2.29493 194,3.5C 194.436,30.8908 194.603,58.2242 194.5,85.5C 206.592,89.9618 216.092,97.6284 223,108.5C 303.914,227.994 384.581,347.661 465,467.5C 465.829,476.661 461.662,480.161 452.5,478C 422.006,434.681 392.006,391.014 362.5,347C 340.846,349.132 319.179,348.965 297.5,346.5C 217.785,329.614 163.951,282.947 136,206.5C 128.659,184.759 125.325,162.425 126,139.5C 129.526,134.095 134.026,133.095 139.5,136.5C 140.801,137.882 141.634,139.548 142,141.5C 145.6,223.254 184.1,281.754 257.5,317C 287.758,329.689 319.091,333.855 351.5,329.5C 304,259.167 256.5,188.833 209,118.5C 205.478,113.981 201.645,109.815 197.5,106C 191.217,102.858 184.883,100.025 178.5,97.5C 176.956,93.8906 176.29,90.0573 176.5,86C 177.407,62.8433 177.74,39.6767 177.5,16.5C 139.167,16.5 100.833,16.5 62.5,16.5C 61.7449,55.2999 63.5782,93.9666 68,132.5C 74.365,183.54 94.0316,228.54 127,267.5C 146.971,288.472 167.305,309.138 188,329.5C 215.422,357.661 235.755,390.328 249,427.5C 255.076,428.476 261.242,428.81 267.5,428.5C 267.333,407.164 267.5,385.831 268,364.5C 268.392,361.545 269.892,359.378 272.5,358C 275.868,357.457 279.201,357.624 282.5,358.5C 282.987,359.473 283.487,360.473 284,361.5C 284.667,388.167 284.667,414.833 284,441.5C 282.238,444.268 279.738,445.768 276.5,446C 269.144,446.169 261.811,446.669 254.5,447.5C 259.187,466.891 261.02,486.558 260,506.5C 259.003,508.323 257.836,509.99 256.5,511.5C 209.833,511.5 163.167,511.5 116.5,511.5C 111.255,507.803 110.255,503.136 113.5,497.5C 114.665,496.416 115.998,495.583 117.5,495C 137.497,494.5 157.497,494.333 177.5,494.5C 177.438,447.461 169.605,401.794 154,357.5C 142.324,331.148 129.324,305.482 115,280.5C 96.0652,257.857 80.7319,232.857 69,205.5C 55.7515,169.013 48.4182,131.347 47,92.5C 45.5558,63.1797 45.2224,33.8464 46,4.5C 47.025,2.31305 48.525,0.646381 50.5,-0.5 Z M 224.5,412.5 C 236.09,438.364 242.423,465.531 243.5,494C 227.17,494.5 210.837,494.667 194.5,494.5C 194.321,478.478 193.654,462.478 192.5,446.5C 200.174,446.666 207.841,446.5 215.5,446C 220.667,445.5 223.5,442.667 224,437.5C 224.5,429.173 224.666,420.84 224.5,412.5 Z"/></g>
<g><path style="opacity:0.999" fill="#fdfdfd" d="M 178.5,97.5 C 165.833,110.833 152.833,123.833 139.5,136.5C 134.026,133.095 129.526,134.095 126,139.5C 125.325,162.425 128.659,184.759 136,206.5C 163.951,282.947 217.785,329.614 297.5,346.5C 292.476,350.53 287.476,354.53 282.5,358.5C 279.201,357.624 275.868,357.457 272.5,358C 269.892,359.378 268.392,361.545 268,364.5C 267.5,385.831 267.333,407.164 267.5,428.5C 261.242,428.81 255.076,428.476 249,427.5C 235.755,390.328 215.422,357.661 188,329.5C 167.305,309.138 146.971,288.472 127,267.5C 94.0316,228.54 74.365,183.54 68,132.5C 63.5782,93.9666 61.7449,55.2999 62.5,16.5C 100.833,16.5 139.167,16.5 177.5,16.5C 177.74,39.6767 177.407,62.8433 176.5,86C 176.29,90.0573 176.956,93.8906 178.5,97.5 Z"/></g>
<g><path style="opacity:0.998" fill="#040404" d="M 83.5,32.5 C 98.3065,31.9313 110.473,37.2647 120,48.5C 129.569,37.1303 141.735,31.9636 156.5,33C 162.346,36.901 163.013,41.5677 158.5,47C 153.633,48.7918 148.633,50.1251 143.5,51C 132.692,56.8429 127.192,66.0095 127,78.5C 122.924,82.034 118.591,82.3674 114,79.5C 112.348,74.5939 111.015,69.5939 110,64.5C 107.5,58 103,53.5 96.5,51C 91.0879,50.2313 85.9212,48.7313 81,46.5C 77.7146,41.1668 78.5479,36.5002 83.5,32.5 Z"/></g>
<g><path style="opacity:1" fill="#fe9825" d="M 178.5,97.5 C 184.883,100.025 191.217,102.858 197.5,106C 201.645,109.815 205.478,113.981 209,118.5C 256.5,188.833 304,259.167 351.5,329.5C 319.091,333.855 287.758,329.689 257.5,317C 184.1,281.754 145.6,223.254 142,141.5C 141.634,139.548 140.801,137.882 139.5,136.5C 152.833,123.833 165.833,110.833 178.5,97.5 Z"/></g>
<g><path style="opacity:1" fill="#00e1c2" d="M 157.5,324.5 C 175.846,339.605 192.013,357.271 206,377.5C 206.5,394.83 206.667,412.163 206.5,429.5C 200.833,429.5 195.167,429.5 189.5,429.5C 184.85,392.54 174.183,357.54 157.5,324.5 Z"/></g>
</svg>
