<svg width="28" height="32" viewBox="0 0 28 32" fill="none" xmlns="http://www.w3.org/2000/svg">
<path d="M19.469 23.9068L15.874 27.3798C15.25 28.0048 14.39 28.2648 13.442 28.2648C12.494 28.2648 11.635 28.0048 11.01 27.3798L5.23403 21.5678C4.61403 20.9428 4.29703 20.0308 4.29703 19.0828C4.29703 18.1308 4.61403 17.2708 5.23403 16.6508L10.994 10.8068C11.614 10.1878 12.494 9.94784 13.442 9.94784C14.39 9.94784 15.25 10.2078 15.874 10.8328L19.469 14.3058C20.156 14.9938 21.292 14.9688 22.005 14.2538C22.713 13.5408 22.74 12.4058 22.052 11.7178L18.579 8.20684C17.678 7.31584 16.547 6.70184 15.318 6.41984L18.605 3.08684C19.293 2.39984 19.272 1.26384 18.558 0.550844C17.844 -0.162156 16.709 -0.184156 16.022 0.498844L2.55303 13.9678C1.24603 15.2798 0.564026 17.0808 0.564026 19.0808C0.564026 21.0768 1.24703 22.9408 2.55303 24.2488L8.35003 30.0608C9.65703 31.3678 11.465 31.9978 13.465 31.9978C15.46 31.9978 17.266 31.3148 18.574 30.0088L22.053 26.4878C22.741 25.8048 22.714 24.6708 22.001 23.9568C21.288 23.2428 20.152 23.2168 19.47 23.9048L19.469 23.9068ZM25.749 17.3488H12.218C11.286 17.3488 10.526 18.1498 10.526 19.1398C10.526 20.1308 11.286 20.9368 12.218 20.9368H25.749C26.682 20.9368 27.442 20.1298 27.442 19.1398C27.442 18.1508 26.682 17.3488 25.749 17.3488Z" fill="#F3F2F3"/>
</svg>
