<svg width="85" height="26" viewBox="0 0 85 26" fill="none" xmlns="http://www.w3.org/2000/svg">
<path d="M58.5598 6.20334C59.8186 7.09049 60.31 8.35135 60.5634 9.80757C60.7111 10.7765 60.6918 11.7566 60.6914 12.7342C60.6922 12.9604 60.6931 13.1866 60.6941 13.4129C60.6956 13.8841 60.6958 14.3553 60.6951 14.8265C60.6944 15.4249 60.698 16.0233 60.7026 16.6217C60.7057 17.088 60.706 17.5543 60.7055 18.0207C60.7057 18.2411 60.7068 18.4615 60.7089 18.6819C60.7237 20.4402 60.6034 22.3521 59.3672 23.7362C59.3063 23.8045 59.2454 23.8728 59.1827 23.9432C58.1448 24.9584 56.6182 25.5377 55.2105 25.7963C55.0767 25.8256 55.0767 25.8256 54.9402 25.8554C52.8772 26.227 50.8174 25.8989 49.0914 24.7238C48.1144 23.9624 47.4998 22.8342 47.1281 21.6761C47.1281 21.525 47.1281 21.3739 47.1281 21.2183C47.693 21.2012 48.2578 21.1888 48.8229 21.1805C49.015 21.1771 49.2071 21.1724 49.3991 21.1665C49.6758 21.1581 49.9521 21.1542 50.2289 21.1512C50.3143 21.1477 50.3997 21.1441 50.4877 21.1405C50.8211 21.1402 51.0869 21.1484 51.347 21.3689C51.4897 21.5403 51.6189 21.7224 51.7466 21.905C52.58 22.5404 53.4997 22.6049 54.5177 22.4772C55.3389 22.2576 55.856 21.6897 56.2754 20.9791C56.6314 20.2998 56.726 19.7883 56.7187 19.0151C56.7177 18.8705 56.7167 18.7259 56.7156 18.577C56.7142 18.4666 56.7129 18.3562 56.7115 18.2425C56.6377 18.3417 56.5639 18.4408 56.4878 18.543C55.8339 19.3132 54.9414 19.8074 53.9404 19.9593C52.0245 20.1133 50.5616 19.8166 49.0436 18.5899C47.7077 17.3703 46.8487 15.5286 46.7631 13.7318C46.7587 13.3503 46.755 12.969 46.7539 12.5875C46.7528 12.3446 46.7492 12.1019 46.7456 11.859C46.7348 10.51 46.9086 9.24343 47.5466 8.035C47.5865 7.95815 47.6264 7.88131 47.6675 7.80213C48.3559 6.52982 49.4018 5.49493 50.8069 5.03973C53.4796 4.24485 56.2141 4.80522 58.5598 6.20334Z" fill="#5E1E06"/>
<path d="M71.0293 5.07902C71.1135 5.10248 71.1978 5.12594 71.2846 5.15011C72.5848 5.5602 73.7274 6.59646 74.3791 7.76682C75.349 9.64008 75.3014 11.2475 75.3014 13.4339C72.1389 13.4339 68.9763 13.4339 65.718 13.4339C65.9171 15.0145 65.9171 15.0145 66.8335 16.2229C67.4381 16.6438 67.9339 16.7274 68.6623 16.7101C68.8014 16.7134 68.8014 16.7134 68.9433 16.7168C69.6609 16.711 70.1276 16.5124 70.6829 16.0663C70.7488 15.9955 70.8148 15.9248 70.8827 15.8519C71.379 15.3295 71.7258 15.2101 72.4545 15.1869C72.7689 15.1893 73.0822 15.2015 73.3963 15.215C73.5589 15.2191 73.7216 15.2227 73.8843 15.226C74.28 15.2354 74.6751 15.2485 75.0705 15.2651C74.8341 16.797 73.9048 17.9876 72.6746 18.9061C70.978 20.015 68.8427 20.3546 66.8559 19.9974C65.0836 19.5758 63.7948 18.6919 62.8025 17.1893C62.37 16.463 62.1015 15.7407 61.9077 14.9218C61.8874 14.8395 61.8672 14.7572 61.8464 14.6725C61.2818 12.1866 61.5755 9.42851 62.9468 7.25358C63.9133 5.93529 65.2096 5.19844 66.7797 4.78306C68.1837 4.5776 69.6778 4.65423 71.0293 5.07902Z" fill="#5E1E06"/>
<path d="M7.42602 0.00154195C7.578 0.00091522 7.578 0.00091522 7.73305 0.000275829C8.06529 -0.000645843 8.39746 0.000900698 8.72969 0.0025758C8.96201 0.00263523 9.19433 0.00257571 9.42664 0.00240291C9.9124 0.00241316 10.3981 0.00360138 10.8839 0.00567737C11.5053 0.00827548 12.1268 0.00833559 12.7482 0.00756378C13.2275 0.0071807 13.7069 0.00794192 14.1862 0.00906643C14.4153 0.00950572 14.6444 0.00963936 14.8735 0.00945718C15.194 0.00941456 15.5145 0.0108647 15.835 0.0127188C15.9289 0.0124352 16.0228 0.0121517 16.1195 0.0118595C17.4276 0.0238868 18.4594 0.518034 19.4119 1.39386C19.7751 1.78283 20.006 2.19613 20.2251 2.67651C20.2618 2.74792 20.2986 2.81933 20.3365 2.8929C20.8205 3.94533 20.6366 5.108 20.2413 6.15652C20.0803 6.51934 19.8938 6.82763 19.6478 7.14008C19.579 7.232 19.5102 7.32391 19.4394 7.41861C19.1773 7.72225 18.933 7.91278 18.5941 8.12722C18.4938 8.19243 18.3935 8.25764 18.2902 8.32482C17.4037 8.77159 16.5492 8.90794 15.5636 8.90308C15.4501 8.90387 15.3365 8.90465 15.2195 8.90546C14.8479 8.90754 14.4763 8.90712 14.1046 8.90646C13.8444 8.90699 13.5842 8.90759 13.324 8.90828C12.7804 8.9093 12.2367 8.90903 11.693 8.90789C10.9975 8.90657 10.3021 8.90889 9.60663 8.91223C9.06995 8.91433 8.53328 8.9143 7.99659 8.91364C7.74018 8.91363 7.48377 8.91432 7.22737 8.91574C6.86872 8.91745 6.5102 8.91622 6.15155 8.91426C5.99407 8.91592 5.99407 8.91592 5.8334 8.91761C5.03634 8.90852 4.43892 8.70911 3.82097 8.20319C3.21747 7.39083 3.27 6.51234 3.28977 5.5449C3.29522 5.25975 3.29452 4.97509 3.29299 4.6899C3.29805 3.27712 3.51649 2.14213 4.52204 1.07421C5.38792 0.288936 6.26911 -0.00926426 7.42602 0.00154195Z" fill="#FEA325"/>
<path d="M6.10997 10.8889C6.19928 10.8865 6.28858 10.8842 6.38059 10.8817C7.17387 10.8764 7.79847 11.0136 8.41924 11.5197C8.54784 11.6571 8.54784 11.6571 8.67903 11.7973C8.76715 11.8898 8.85526 11.9823 8.94604 12.0776C9.01034 12.148 9.07464 12.2184 9.14089 12.2909C9.21836 12.2245 9.21836 12.2245 9.29739 12.1568C9.514 11.9718 9.73149 11.7879 9.94913 11.6042C10.0492 11.5192 10.1492 11.4342 10.2522 11.3467C10.9113 10.8653 11.5285 10.8808 12.3197 10.879C12.4384 10.8783 12.557 10.8775 12.6793 10.8767C12.9304 10.8756 13.1816 10.875 13.4328 10.8751C13.8126 10.8746 14.1923 10.8704 14.5722 10.8661C16.3384 10.8566 17.8411 10.9059 19.1862 12.1764C19.2597 12.2434 19.3333 12.3104 19.409 12.3794C20.1864 13.1633 20.5968 14.1927 20.6295 15.2881C20.5638 16.5922 20.0633 17.7925 19.0852 18.6858C18.0857 19.4863 17.0104 19.7656 15.7422 19.7616C15.5961 19.7625 15.5961 19.7625 15.4471 19.7634C15.1278 19.765 14.8085 19.7649 14.4892 19.7646C14.2655 19.765 14.0417 19.7655 13.818 19.7661C13.35 19.7669 12.8821 19.7669 12.4141 19.7663C11.8167 19.7656 11.2194 19.7676 10.6221 19.7702C10.1603 19.7719 9.69845 19.772 9.23664 19.7717C9.01652 19.7717 8.79639 19.7723 8.57627 19.7735C6.96737 19.7809 5.61622 19.7729 4.40689 18.5857C3.67612 17.7047 3.3139 16.79 3.31359 15.6565C3.31271 15.5659 3.31183 15.4754 3.31093 15.3821C3.30969 15.1921 3.30935 15.002 3.30987 14.812C3.30998 14.5233 3.30516 14.235 3.30006 13.9464C3.28756 12.2809 3.28756 12.2809 3.78624 11.6428C4.50794 10.947 5.16103 10.895 6.10997 10.8889Z" fill="#FDA225"/>
<path d="M23.3423 5.07914C24.6378 5.07914 25.9333 5.07914 27.2681 5.07914C27.2691 5.38291 27.2702 5.68668 27.2713 5.99966C27.2752 7.00512 27.2817 8.01056 27.2893 9.016C27.2939 9.6254 27.2976 10.2348 27.2994 10.8442C27.3011 11.4327 27.3051 12.0211 27.3106 12.6096C27.3123 12.8337 27.3132 13.0579 27.3133 13.282C27.3136 13.5968 27.3167 13.9115 27.3205 14.2262C27.3199 14.3182 27.3193 14.4101 27.3187 14.5049C27.3307 15.1497 27.4875 15.639 27.8454 16.1808C28.0669 16.396 28.0669 16.396 28.3145 16.517C28.392 16.5606 28.4695 16.6041 28.5494 16.6489C29.2314 16.9723 29.9788 16.9671 30.7054 16.7893C31.361 16.5545 31.7409 16.3063 32.1175 15.723C32.3342 15.1972 32.3808 14.7233 32.3761 14.1621C32.3763 14.0773 32.3766 13.9926 32.3768 13.9052C32.3772 13.7222 32.3771 13.5392 32.3766 13.3561C32.376 13.0659 32.377 12.7758 32.3786 12.4856C32.3829 11.6609 32.385 10.8362 32.3837 10.0115C32.383 9.50611 32.3852 9.00074 32.389 8.49532C32.3899 8.30336 32.3898 8.11139 32.3886 7.91943C32.3869 7.65043 32.3888 7.38166 32.3914 7.11267C32.3894 6.995 32.3894 6.995 32.3873 6.87496C32.3994 6.247 32.6182 5.86628 33.0412 5.42249C33.4521 5.10576 33.7402 5.03704 34.2559 5.04561C34.3738 5.04671 34.4918 5.04782 34.6133 5.04896C34.796 5.05328 34.796 5.05328 34.9825 5.05768C35.1686 5.06 35.1686 5.06 35.3584 5.06237C35.6637 5.06641 35.9689 5.07205 36.2742 5.07914C36.2796 6.30693 36.2837 7.53472 36.2862 8.76252C36.2874 9.33277 36.289 9.90301 36.2916 10.4733C36.2942 11.0246 36.2955 11.576 36.2961 12.1274C36.2966 12.3367 36.2974 12.5459 36.2986 12.7552C36.3222 16.8541 36.3222 16.8541 34.8887 18.3554C33.4425 19.5997 31.3573 20.1878 29.4565 20.1088C27.7455 19.9249 25.7231 19.4402 24.515 18.1234C23.6415 16.9019 23.3225 15.6083 23.3292 14.1353C23.3292 14.0369 23.3292 13.9386 23.3292 13.8372C23.3292 13.5146 23.3301 13.192 23.331 12.8694C23.3313 12.6447 23.3314 12.42 23.3315 12.1954C23.332 11.6059 23.3331 11.0164 23.3344 10.4269C23.3356 9.82468 23.3361 9.22243 23.3367 8.62017C23.3379 7.43983 23.3399 6.25948 23.3423 5.07914Z" fill="#5D1D05"/>
<path d="M45.9732 5.08008C45.9732 6.36421 45.9732 7.64835 45.9732 8.97139C45.6564 8.98084 45.3397 8.99028 45.0134 9.00001C44.1443 9.03764 43.4223 9.18497 42.6247 9.54365C42.5104 9.58141 42.3961 9.61918 42.2783 9.6581C42.1488 9.86701 42.1488 9.86701 42.0474 10.1159C42.0074 10.1905 41.9675 10.2651 41.9263 10.3419C41.4828 11.2748 41.5157 12.2175 41.5152 13.2248C41.5134 13.4131 41.5115 13.6013 41.5094 13.7896C41.5044 14.2814 41.502 14.7732 41.5003 15.2651C41.4976 15.8571 41.4916 16.4492 41.4861 17.0412C41.4782 17.9374 41.4745 18.8335 41.4701 19.7297C40.1746 19.7297 38.8791 19.7297 37.5443 19.7297C37.5212 17.7696 37.5212 17.7696 37.5161 16.9179C37.5127 16.3423 37.5087 15.7668 37.5008 15.1913C37.4199 9.18267 37.4199 9.18267 39.5523 6.95197C41.3976 5.30081 43.5893 5.08008 45.9732 5.08008Z" fill="#5E1E06"/>
<path d="M83.9396 5.07268C84.2897 5.07504 84.6397 5.0774 85.0004 5.07983C85.0004 6.36397 85.0004 7.6481 85.0004 8.97115C84.6837 8.98059 84.367 8.99003 84.0406 8.99976C83.0015 9.04966 81.9867 9.13193 81.2406 9.92967C80.7679 10.5165 80.6938 11.1789 80.6915 11.9077C80.6897 12.0351 80.6897 12.0351 80.6879 12.1651C80.6844 12.4437 80.6824 12.7224 80.6805 13.0011C80.6783 13.1951 80.676 13.3891 80.6737 13.5832C80.6678 14.0923 80.6632 14.6014 80.6589 15.1106C80.6534 15.7223 80.6463 16.334 80.6395 16.9457C80.6293 17.8737 80.6213 18.8016 80.6128 19.7295C79.3173 19.7295 78.0218 19.7295 76.687 19.7295C76.6778 17.6709 76.6778 17.6709 76.6758 16.786C76.6744 16.1847 76.6728 15.5835 76.6696 14.9823C76.6671 14.4969 76.6657 14.0116 76.6651 13.5263C76.6647 13.3421 76.6639 13.158 76.6626 12.9739C76.6479 10.7316 76.9364 8.73682 78.5345 7.02549C80.0669 5.70533 81.9202 5.05342 83.9396 5.07268Z" fill="#5E1E06"/>
<path d="M55.052 8.2343C55.97 8.81027 56.4711 9.77195 56.7749 10.7834C57.0952 12.2984 56.9752 14.1785 56.213 15.5377C55.797 16.1505 55.2214 16.6561 54.4744 16.8104C54.181 16.8345 53.8959 16.8391 53.6015 16.8324C53.4994 16.8306 53.3973 16.8288 53.2921 16.8269C52.6391 16.7993 52.1082 16.7423 51.5958 16.3062C50.5043 14.9695 50.3214 13.2648 50.4768 11.6034C50.6444 10.4484 50.9603 9.25304 51.8421 8.43146C52.6903 7.85328 54.1164 7.82331 55.052 8.2343Z" fill="white"/>
<path d="M6.10997 10.8889C6.19928 10.8865 6.28858 10.8842 6.38059 10.8817C7.17387 10.8764 7.79847 11.0136 8.41924 11.5197C8.54784 11.6571 8.54784 11.6571 8.67903 11.7973C8.76715 11.8898 8.85526 11.9823 8.94604 12.0776C9.01034 12.148 9.07464 12.2184 9.14089 12.2909C9.21836 12.2245 9.21836 12.2245 9.29739 12.1568C9.514 11.9718 9.73149 11.7879 9.94913 11.6042C10.0492 11.5192 10.1492 11.4342 10.2522 11.3467C10.9113 10.8653 11.5285 10.8808 12.3197 10.879C12.4384 10.8783 12.557 10.8775 12.6793 10.8767C12.9304 10.8756 13.1816 10.875 13.4328 10.8751C13.8126 10.8746 14.1923 10.8704 14.5722 10.8661C16.3384 10.8566 17.8411 10.9059 19.1862 12.1764C19.2597 12.2434 19.3333 12.3104 19.409 12.3794C20.1864 13.1633 20.5968 14.1927 20.6295 15.2881C20.5638 16.5922 20.0633 17.7925 19.0852 18.6858C18.0857 19.4863 17.0104 19.7656 15.7422 19.7616C15.5961 19.7625 15.5961 19.7625 15.4471 19.7634C15.1278 19.765 14.8085 19.7649 14.4892 19.7646C14.2655 19.765 14.0417 19.7655 13.818 19.7661C13.35 19.7669 12.8821 19.7669 12.4141 19.7663C11.8167 19.7656 11.2194 19.7676 10.6221 19.7702C10.1603 19.7719 9.69845 19.772 9.23664 19.7717C9.01652 19.7717 8.79639 19.7723 8.57627 19.7735C6.96737 19.7809 5.61622 19.7729 4.40689 18.5857C3.67612 17.7047 3.3139 16.79 3.31359 15.6565C3.31271 15.5659 3.31183 15.4754 3.31093 15.3821C3.30969 15.1921 3.30935 15.002 3.30987 14.812C3.30998 14.5233 3.30516 14.235 3.30006 13.9464C3.28756 12.2809 3.28756 12.2809 3.78624 11.6428C4.50794 10.947 5.16103 10.895 6.10997 10.8889ZM4.29266 12.3424C4.05069 12.9475 4.07448 13.5913 4.08564 14.2329C4.08933 14.4845 4.08568 14.7353 4.08124 14.987C4.07773 16.1517 4.29094 17.1541 5.10587 18.0432C5.85166 18.7504 6.59097 18.9813 7.59809 18.9735C7.69451 18.9741 7.79094 18.9747 7.89029 18.9753C8.20705 18.9768 8.52374 18.9758 8.8405 18.9746C9.06208 18.9749 9.28365 18.9752 9.50522 18.9756C9.96896 18.9761 10.4327 18.9754 10.8964 18.9738C11.4887 18.9718 12.081 18.973 12.6733 18.975C13.1308 18.9763 13.5882 18.9759 14.0456 18.975C14.2639 18.9747 14.4822 18.975 14.7005 18.9758C15.0066 18.9767 15.3126 18.9754 15.6187 18.9735C15.7521 18.9745 15.7521 18.9745 15.8882 18.9756C17.0829 18.9619 17.9529 18.5124 18.8082 17.7125C19.599 16.8804 19.7168 15.9674 19.6878 14.8508C19.5883 13.8848 19.086 13.1714 18.378 12.5198C17.1958 11.6442 15.7242 11.7524 14.3227 11.7278C14.0592 11.7217 13.7957 11.7124 13.5324 11.6996C11.8998 11.5733 11.8998 11.5733 10.4607 12.2019C10.1673 12.4823 9.91589 12.7807 9.66727 13.1001C9.56977 13.2107 9.47227 13.3214 9.37181 13.4354C8.96895 13.3914 8.78649 13.2369 8.51305 12.949C8.4437 12.8773 8.37434 12.8056 8.30288 12.7317C8.23649 12.6618 8.17011 12.5918 8.10172 12.5198C7.4363 11.8395 7.05189 11.7985 6.10997 11.7759C6.00117 11.7697 5.89237 11.7635 5.78027 11.7571C5.13229 11.7445 4.68296 11.795 4.29266 12.3424Z" fill="#5C1B06"/>
<path d="M7.42602 0.00154195C7.578 0.00091522 7.578 0.00091522 7.73305 0.000275829C8.06529 -0.000645843 8.39746 0.000900698 8.72969 0.0025758C8.96201 0.00263523 9.19433 0.00257571 9.42664 0.00240291C9.9124 0.00241316 10.3981 0.00360138 10.8839 0.00567737C11.5053 0.00827548 12.1268 0.00833559 12.7482 0.00756378C13.2275 0.0071807 13.7069 0.00794192 14.1862 0.00906643C14.4153 0.00950572 14.6444 0.00963936 14.8735 0.00945718C15.194 0.00941456 15.5145 0.0108647 15.835 0.0127188C15.9289 0.0124352 16.0228 0.0121517 16.1195 0.0118595C17.4276 0.0238868 18.4594 0.518034 19.4119 1.39386C19.7751 1.78283 20.006 2.19613 20.2251 2.67651C20.2618 2.74792 20.2986 2.81933 20.3365 2.8929C20.8205 3.94533 20.6366 5.108 20.2413 6.15652C20.0803 6.51934 19.8938 6.82763 19.6478 7.14008C19.579 7.232 19.5102 7.32391 19.4394 7.41861C19.1773 7.72225 18.933 7.91278 18.5941 8.12722C18.4938 8.19243 18.3935 8.25764 18.2902 8.32482C17.4037 8.77159 16.5492 8.90794 15.5636 8.90308C15.4501 8.90387 15.3365 8.90465 15.2195 8.90546C14.8479 8.90754 14.4763 8.90712 14.1046 8.90646C13.8444 8.90699 13.5842 8.90759 13.324 8.90828C12.7804 8.9093 12.2367 8.90903 11.693 8.90789C10.9975 8.90657 10.3021 8.90889 9.60663 8.91223C9.06995 8.91433 8.53328 8.9143 7.99659 8.91364C7.74018 8.91363 7.48377 8.91432 7.22737 8.91574C6.86872 8.91745 6.5102 8.91622 6.15155 8.91426C5.99407 8.91592 5.99407 8.91592 5.8334 8.91761C5.03634 8.90852 4.43892 8.70911 3.82097 8.20319C3.21747 7.39083 3.27 6.51234 3.28977 5.5449C3.29522 5.25975 3.29452 4.97509 3.29299 4.6899C3.29805 3.27712 3.51649 2.14213 4.52204 1.07421C5.38792 0.288936 6.26911 -0.00926426 7.42602 0.00154195ZM4.93338 1.91113C4.86209 1.99094 4.79079 2.07076 4.71734 2.15299C4.12312 3.04942 4.11789 3.92298 4.12415 4.95932C4.12514 5.20903 4.12179 5.45843 4.11814 5.70811C4.11796 5.86861 4.11802 6.02911 4.11837 6.18961C4.11816 6.33362 4.11794 6.47763 4.11772 6.62601C4.20017 7.1948 4.46477 7.54112 4.86843 7.94124C5.08722 7.9762 5.08722 7.9762 5.3407 7.97107C5.43959 7.97188 5.53847 7.97269 5.64035 7.97353C5.74909 7.97325 5.85783 7.97296 5.96987 7.97267C6.08423 7.97326 6.19859 7.97384 6.31642 7.97444C6.69628 7.97604 7.07612 7.97592 7.45599 7.97566C7.7198 7.9761 7.98362 7.9766 8.24744 7.97715C8.80159 7.978 9.35574 7.97797 9.90989 7.97736C10.6186 7.9767 11.3272 7.97863 12.0359 7.9813C12.5814 7.98299 13.1269 7.98308 13.6724 7.98273C13.9336 7.98278 14.1947 7.98338 14.4559 7.98453C14.8223 7.98595 15.1887 7.98517 15.5551 7.98385C15.6623 7.98472 15.7694 7.9856 15.8797 7.9865C16.986 7.97772 17.9213 7.6851 18.724 6.91118C19.566 5.87863 19.7686 4.90834 19.6478 3.59212C19.5436 3.21147 19.3915 2.89838 19.1859 2.56206C19.1468 2.49066 19.1076 2.41925 19.0673 2.34568C18.566 1.53233 17.6639 1.09459 16.7612 0.845307C16.43 0.812179 16.1008 0.810519 15.7681 0.810239C15.6708 0.809287 15.5734 0.808334 15.4731 0.807353C15.1525 0.804604 14.832 0.803592 14.5114 0.802835C14.2874 0.801808 14.0633 0.800764 13.8393 0.799704C13.3699 0.797819 12.9005 0.796935 12.4312 0.796604C11.832 0.795988 11.2329 0.791678 10.6337 0.786447C10.1709 0.78303 9.70814 0.782214 9.24532 0.7821C9.02455 0.781621 8.80378 0.780205 8.58302 0.777806C7.17498 0.763723 5.92089 0.759668 4.93338 1.91113Z" fill="#5C1C06"/>
<path d="M6.10997 10.8882C6.19928 10.8858 6.28858 10.8834 6.38059 10.881C7.17387 10.8757 7.79847 11.0129 8.41924 11.519C8.54784 11.6564 8.54784 11.6564 8.67903 11.7966C8.76715 11.8891 8.85526 11.9816 8.94604 12.0769C9.01034 12.1473 9.07464 12.2177 9.14089 12.2902C9.21836 12.2238 9.21836 12.2238 9.29739 12.1561C9.514 11.9711 9.73149 11.7872 9.94913 11.6035C10.0492 11.5185 10.1492 11.4335 10.2522 11.346C10.7009 11.0182 11.0066 10.9168 11.5656 10.9168C11.5656 10.9923 11.5656 11.0678 11.5656 11.1457C11.4132 11.1457 11.2608 11.1457 11.1038 11.1457C11.1609 11.4289 11.1609 11.4289 11.2192 11.7179C12.8958 11.7179 14.5723 11.7179 16.2996 11.7179C16.2996 11.7557 16.2996 11.7935 16.2996 11.8324C16.2052 11.8292 16.2052 11.8292 16.1089 11.8259C15.4456 11.8052 14.7828 11.7961 14.1192 11.7933C13.8726 11.7908 13.626 11.7854 13.3795 11.777C11.8273 11.6888 11.8273 11.6888 10.4715 12.3182C10.1792 12.5994 9.92526 12.8984 9.67361 13.2153C9.57402 13.3255 9.47442 13.4356 9.37181 13.5491C8.93681 13.5045 8.74355 13.3066 8.44811 12.9983C8.3719 12.9197 8.29569 12.8411 8.21718 12.76C8.14097 12.6805 8.06477 12.601 7.98625 12.5191C7.37286 11.8898 6.96086 11.9133 6.10276 11.8968C5.99299 11.8915 5.88322 11.8863 5.77012 11.8809C5.66363 11.8792 5.55713 11.8775 5.44741 11.8757C5.30177 11.8714 5.30177 11.8714 5.1532 11.8671C4.80002 11.9661 4.6241 12.1431 4.40499 12.4309C4.21189 12.7754 4.21438 13.0895 4.21069 13.4785C4.20986 13.5581 4.20904 13.6377 4.20818 13.7197C4.20729 13.8877 4.20786 14.0556 4.20981 14.2235C4.21202 14.4762 4.2075 14.7281 4.20234 14.9807C4.19542 16.1367 4.38175 17.1284 5.2001 18.0187C5.55763 18.348 5.90833 18.538 6.36976 18.6994C6.42692 18.8127 6.42692 18.8127 6.48523 18.9283C6.71808 19.058 6.71808 19.058 6.94708 19.1572C6.77562 19.2139 6.77562 19.2139 6.60069 19.2717C6.77215 19.385 6.77215 19.385 6.94708 19.5006C6.17988 19.6713 5.74147 19.5197 5.09876 19.1317C4.19732 18.5219 3.67321 17.6715 3.36771 16.6393C3.32046 16.3106 3.31368 15.9875 3.31359 15.6557C3.31271 15.5652 3.31183 15.4747 3.31093 15.3814C3.30969 15.1914 3.30935 15.0013 3.30987 14.8113C3.30998 14.5226 3.30516 14.2343 3.30006 13.9457C3.28756 12.2801 3.28756 12.2801 3.78624 11.6421C4.50794 10.9463 5.16103 10.8943 6.10997 10.8882Z" fill="#5D1D07"/>
<path d="M7.40863 0.272161C7.40863 0.347698 7.40863 0.423236 7.40863 0.501062C7.10295 0.668231 6.95896 0.729963 6.60038 0.729963C6.60038 0.8055 6.60038 0.881037 6.60038 0.958864C6.52641 0.989551 6.45244 1.02024 6.37622 1.05185C5.46639 1.46044 4.90197 1.93412 4.44537 2.81913C4.20022 3.50526 4.23527 4.23949 4.23961 4.95843C4.2406 5.20813 4.23726 5.45754 4.23361 5.70722C4.23342 5.86772 4.23349 6.02821 4.23383 6.18871C4.23362 6.33273 4.23341 6.47674 4.23318 6.62511C4.30566 7.12506 4.5073 7.46793 4.86843 7.82589C5.02909 7.83681 5.19031 7.83984 5.35134 7.83965C5.45546 7.83981 5.55957 7.83997 5.66684 7.84013C5.78194 7.83972 5.89705 7.83931 6.01565 7.83888C6.13617 7.8389 6.25669 7.83892 6.38086 7.83894C6.78133 7.83886 7.1818 7.83796 7.58227 7.83707C7.8591 7.83686 8.13593 7.83669 8.41276 7.83658C9.143 7.83614 9.87324 7.83501 10.6035 7.83375C11.348 7.83258 12.0925 7.83206 12.837 7.83148C14.299 7.83025 15.761 7.82832 17.223 7.82589C16.8115 8.0978 16.6265 8.08575 16.1378 8.09128C16.0634 8.09243 15.989 8.09358 15.9124 8.09477C15.6668 8.0983 15.4213 8.10025 15.1758 8.10218C15.0054 8.10432 14.8351 8.10656 14.6647 8.1089C14.2166 8.11478 13.7684 8.11931 13.3202 8.12356C12.8628 8.12815 12.4054 8.13399 11.948 8.13974C11.0507 8.15081 10.1534 8.16047 9.25604 8.16924C9.17984 8.32032 9.10363 8.47139 9.02512 8.62704C12.8545 8.6837 12.8545 8.6837 16.7612 8.7415C16.7612 8.77926 16.7612 8.81703 16.7612 8.85595C15.2416 8.86656 13.722 8.87469 12.2023 8.87967C11.4967 8.88205 10.791 8.88529 10.0854 8.89048C9.4041 8.89546 8.72284 8.8982 8.04155 8.89938C7.78192 8.90023 7.52228 8.90187 7.26266 8.90435C6.89837 8.90768 6.53418 8.90813 6.16988 8.90792C6.06307 8.90956 5.95626 8.91121 5.84622 8.91291C5.04171 8.90786 4.44473 8.71297 3.82097 8.2023C3.21747 7.38994 3.27 6.51144 3.28977 5.54401C3.29522 5.25886 3.29452 4.9742 3.29299 4.68901C3.29805 3.27623 3.51649 2.14123 4.52204 1.07331C5.32826 0.342149 6.32106 -0.266854 7.40863 0.272161Z" fill="#60210B"/>
<path d="M70.0111 8.23934C70.5512 8.65262 71.1104 9.21195 71.26 9.8877C71.26 10.2276 71.26 10.5675 71.26 10.9178C69.4311 10.9178 67.6021 10.9178 65.7178 10.9178C65.7178 9.88254 65.788 9.42679 66.4552 8.67792C67.3889 7.83106 68.9026 7.59476 70.0111 8.23934Z" fill="white"/>
<path d="M17.8006 8.05512C17.8006 8.20619 17.8006 8.35727 17.8006 8.51292C17.3183 8.74461 16.889 8.7733 16.3628 8.76781C16.2782 8.76784 16.1937 8.76788 16.1066 8.76791C15.8286 8.76775 15.5506 8.76597 15.2726 8.76418C15.0792 8.76375 14.8859 8.76342 14.6926 8.7632C14.1848 8.76232 13.6771 8.76008 13.1693 8.75754C12.6507 8.7552 12.1322 8.75415 11.6136 8.753C10.5969 8.75055 9.58021 8.74664 8.56351 8.74182C8.71592 8.70405 8.86834 8.66629 9.02537 8.62737C8.96821 8.45741 8.96821 8.45741 8.9099 8.28402C7.65251 8.24625 6.39511 8.20848 5.09961 8.16957C5.09961 8.1318 5.09961 8.09403 5.09961 8.05512C5.31978 8.05335 5.31978 8.05335 5.54439 8.05155C6.92572 8.04037 8.30704 8.02861 9.68836 8.01628C10.3986 8.00996 11.1088 8.00385 11.819 7.9982C12.504 7.99275 13.189 7.98676 13.874 7.98039C14.1357 7.97805 14.3974 7.97591 14.6592 7.97397C15.0249 7.97121 15.3907 7.96778 15.7564 7.96417C15.8653 7.96351 15.9742 7.96285 16.0864 7.96217C16.186 7.96105 16.2855 7.95993 16.3881 7.95878C16.5179 7.95767 16.5179 7.95767 16.6503 7.95654C17.4596 7.89985 17.4596 7.89985 17.8006 8.05512Z" fill="#5A1A04"/>
<path d="M0.61063 6.88318C1.29208 6.89283 1.76932 7.08285 2.29928 7.51265C2.75805 8.06845 2.97475 8.59411 2.90547 9.31525C2.70144 9.51748 2.42481 9.46368 2.14774 9.47262C1.45041 9.4644 0.981757 9.35049 0.480733 8.85745C0.0380027 8.27273 -0.0445596 7.7431 0.0188796 7.02624C0.196866 6.84982 0.363473 6.88816 0.61063 6.88318Z" fill="#7EB734"/>
<path d="M7.29302 1.53234C7.23459 1.78055 7.17757 1.9901 7.06209 2.21904C6.98589 2.21904 6.90968 2.21904 6.83117 2.21904C6.83117 2.29458 6.83117 2.37012 6.83117 2.44794C6.98358 2.48571 7.13599 2.52348 7.29302 2.56239C7.29302 2.75124 7.29302 2.94008 7.29302 3.13465C7.0644 3.17241 6.83578 3.21018 6.60024 3.2491C6.65739 3.29867 6.71455 3.34824 6.77343 3.39931C6.94663 3.59245 6.94663 3.59245 6.94663 3.9358C6.75611 3.89803 6.5656 3.86026 6.36931 3.82135C6.40741 4.04796 6.44552 4.27457 6.48477 4.50805C6.33236 4.62136 6.17995 4.73466 6.02292 4.8514C5.90746 4.6225 5.90746 4.6225 5.90746 4.1647C5.60263 4.1647 5.29781 4.1647 4.98375 4.1647C4.86873 3.71695 4.78371 3.31855 4.9824 2.88652C5.49335 2.18073 6.35279 1.2431 7.29302 1.53234ZM7.17756 3.2491C7.21566 3.3624 7.25376 3.47571 7.29302 3.59245C7.17871 3.59245 7.0644 3.59245 6.94663 3.59245C6.94663 3.51691 6.94663 3.44137 6.94663 3.36355C7.02283 3.32578 7.09904 3.28801 7.17756 3.2491Z" fill="#FDA328"/>
<path d="M2.17644 10.1016C2.34857 10.1047 2.34857 10.1047 2.52418 10.1078C2.61185 10.1105 2.69952 10.1132 2.78984 10.1159C2.88384 10.4963 2.91805 10.6525 2.78262 11.0315C2.52768 11.4228 2.29348 11.7441 1.86613 11.9471C1.47561 11.9987 1.10214 11.9981 0.711497 11.9471C0.596033 11.8326 0.596033 11.8326 0.552734 11.4678C0.609783 10.8929 0.766812 10.7478 1.17335 10.3448C1.56834 10.0838 1.71394 10.0908 2.17644 10.1016Z" fill="#7EB734"/>
<path d="M20.6871 10.1157C21.2554 10.3869 21.5093 10.6748 21.7263 11.2602C21.7479 11.5892 21.7479 11.5892 21.7263 11.8325C21.3084 11.9705 21.0113 11.9838 20.5716 11.9469C20.1296 11.711 19.7743 11.4729 19.5325 11.0313C19.4531 10.6021 19.4531 10.6021 19.417 10.2301C19.8184 10.0312 20.2482 10.0637 20.6871 10.1157Z" fill="#80B736"/>
<path d="M3.94426 2.67578C4.02046 2.67578 4.09667 2.67578 4.17518 2.67578C4.2808 3.20039 4.29775 3.68445 4.28072 4.21863C4.27827 4.29813 4.27582 4.37764 4.27329 4.45955C4.26798 4.62644 4.26234 4.79332 4.25637 4.96018C4.24733 5.21556 4.2396 5.47095 4.23201 5.72638C4.22668 5.88904 4.22127 6.0517 4.21578 6.21436C4.21081 6.36162 4.20584 6.50889 4.20072 6.66062C4.17518 7.0249 4.17518 7.0249 4.05972 7.36825C4.10467 7.61347 4.10467 7.61347 4.17518 7.82605C3.98467 7.78828 3.79415 7.75051 3.59787 7.7116C3.45736 7.29379 3.47365 6.91675 3.48421 6.4826C3.48611 6.3958 3.48802 6.30901 3.48998 6.21958C3.4943 6.03592 3.49899 5.85226 3.50399 5.66862C3.51121 5.38909 3.51601 5.10958 3.52074 4.83C3.52525 4.65124 3.52991 4.47249 3.53472 4.29374C3.53582 4.21074 3.53692 4.12774 3.53805 4.04222C3.55605 3.50703 3.67089 3.13635 3.94426 2.67578Z" fill="#5A1A05"/>
<path d="M23.3428 5.08008C23.6857 5.13673 23.6857 5.13673 24.0356 5.19453C23.8831 5.2323 23.7307 5.27007 23.5737 5.30898C23.5737 8.55708 23.5737 11.8052 23.5737 15.1517C23.4975 15.1517 23.4213 15.1517 23.3428 15.1517C23.3428 11.8281 23.3428 8.50444 23.3428 5.08008Z" fill="#62240E"/>
<path d="M21.0328 8.28385C21.0048 8.75474 20.9552 9.03142 20.6791 9.4212C20.2195 9.74107 19.9675 9.70357 19.4163 9.65726C19.373 9.29245 19.373 9.29245 19.4163 8.85611C19.9228 8.26616 20.2714 8.21879 21.0328 8.28385Z" fill="#7EB734"/>
<path d="M4.06055 8.16992C4.40694 8.28437 4.75333 8.39882 5.09972 8.51327C5.6501 8.65598 6.19512 8.64756 6.7601 8.65122C6.92239 8.65292 6.92239 8.65292 7.08797 8.65466C7.44469 8.65826 7.80142 8.6611 8.15815 8.66394C8.40584 8.66629 8.65353 8.66869 8.90122 8.67114C9.55249 8.67745 10.2038 8.68311 10.855 8.68864C11.5199 8.69439 12.1847 8.70076 12.8495 8.70708C14.1535 8.71938 15.4575 8.73099 16.7615 8.74217C16.7615 8.77994 16.7615 8.81771 16.7615 8.85662C15.2419 8.86724 13.7223 8.87537 12.2027 8.88034C11.497 8.88273 10.7914 8.88597 10.0857 8.89116C9.40446 8.89614 8.7232 8.89887 8.04191 8.90006C7.78228 8.9009 7.52264 8.90255 7.26302 8.90503C6.89873 8.90836 6.53454 8.90881 6.17024 8.9086C6.06343 8.91024 5.95663 8.91189 5.84658 8.91358C5.12997 8.90909 4.6795 8.75905 4.06055 8.39882C4.06055 8.32329 4.06055 8.24775 4.06055 8.16992Z" fill="#632811"/>
<path d="M20.3402 3.70703C20.3783 3.70703 20.4164 3.70703 20.4557 3.70703C20.4588 3.91208 20.4611 4.11714 20.4629 4.3222C20.4643 4.43639 20.4656 4.55058 20.467 4.66824C20.4557 4.96599 20.4557 4.96599 20.3402 5.19489C20.1878 5.15712 20.0354 5.11935 19.8784 5.08044C19.8022 5.19374 19.726 5.30705 19.6475 5.42379C19.6856 4.97056 19.7237 4.51734 19.7629 4.05038C19.9153 4.12592 20.0677 4.20146 20.2248 4.27928C20.2629 4.09044 20.301 3.9016 20.3402 3.70703Z" fill="#581803"/>
<path d="M4.63735 11.0312C4.75281 11.4891 4.75281 11.4891 4.63735 11.718C4.71355 11.718 4.78976 11.718 4.86827 11.718C4.79207 11.869 4.71586 12.0201 4.63735 12.1758C4.29817 12.0828 4.29817 12.0828 3.94457 11.9469C3.90646 11.8335 3.86836 11.7202 3.8291 11.6035C4.09582 11.4147 4.36254 11.2258 4.63735 11.0312Z" fill="#5F200C"/>
<path d="M7.5239 11.0312C7.80967 11.1446 7.80967 11.1446 8.10121 11.2602C8.06549 11.3262 8.02977 11.3923 7.99297 11.4604C7.87885 11.7 7.81061 11.9177 7.75482 12.1758C7.60241 12.1002 7.45 12.0247 7.29297 11.9469C7.29297 11.8335 7.29297 11.7202 7.29297 11.6035C7.36917 11.6035 7.44538 11.6035 7.5239 11.6035C7.5239 11.4147 7.5239 11.2258 7.5239 11.0312Z" fill="#63250F"/>
<path d="M6.83128 4.05078C7.0218 4.08855 7.21231 4.12632 7.4086 4.16523C7.4086 4.31631 7.4086 4.46738 7.4086 4.62303C6.97561 4.75179 6.97561 4.75179 6.71582 4.62303C6.75392 4.43419 6.79203 4.24535 6.83128 4.05078Z" fill="#F9E7B9"/>
<path d="M6.83128 2.44727C7.0599 2.50392 7.0599 2.50392 7.29314 2.56172C7.29314 2.75056 7.29314 2.9394 7.29314 3.13397C7.10262 3.0962 6.91211 3.05843 6.71582 3.01952C6.75392 2.83067 6.79203 2.64183 6.83128 2.44727Z" fill="#FBE9C1"/>
<path d="M5.56078 4.05078C5.78939 4.10743 5.78939 4.10743 6.02263 4.16523C5.98453 4.35407 5.94642 4.54292 5.90717 4.73748C5.75475 4.69972 5.60234 4.66195 5.44531 4.62303C5.48342 4.43419 5.52152 4.24535 5.56078 4.05078Z" fill="#FBECC6"/>
<path d="M6.25414 0.158203C6.40655 0.158203 6.55896 0.158203 6.71599 0.158203C6.67789 0.271509 6.63978 0.384815 6.60053 0.501555C6.67673 0.577092 6.75294 0.652629 6.83145 0.730455C6.75525 0.730455 6.67904 0.730455 6.60053 0.730455C6.56242 0.805993 6.52432 0.88153 6.48506 0.959356C6.37075 0.883819 6.25644 0.808282 6.13867 0.730455C6.17677 0.541612 6.21488 0.352769 6.25414 0.158203Z" fill="#5C1D06"/>
<path d="M11.565 10.916C11.565 10.9916 11.565 11.0671 11.565 11.1449C11.1228 11.3512 10.782 11.3963 10.2949 11.3738C10.733 11.0294 10.9912 10.916 11.565 10.916Z" fill="#642714"/>
<path d="M47.7056 7.71289C47.7818 7.75066 47.858 7.78843 47.9365 7.82734C47.8984 7.97842 47.8603 8.12949 47.8211 8.28514C47.7449 8.28514 47.6687 8.28514 47.5902 8.28514C47.5521 8.43622 47.514 8.58729 47.4747 8.74294C47.3592 8.39959 47.3592 8.39959 47.5252 8.03478C47.5847 7.92856 47.6443 7.82233 47.7056 7.71289Z" fill="#622310"/>
</svg>
